PathFileType	4	(X/Y/Z)	C:/Users/beibeiliu/ov580/test_trc\sequence.29_training_dense_left.trc
DataRate	CameraRate	NumFrames	NumMarkers	Units	OrigDataRate	OrigDataStartFrame	OrigNumFrames
120	120	14	19	mm	120	53	78
Frame#	Time	ThumbCMC			ThumbMCP			ThumbIP			ThumbTip			IndexMCP			IndexPIP			IndexTip			MiddleMCP			MiddlePIP			MiddleTip			RingMCP			RingPIP			RingTip			PinkyMCP			PinkyPIP			PinkyTip			BackHand1			BackHand2			BackHand3	
		X0	Y0	Z0	X1	Y1	Z1	X2	Y2	Z2	X3	Y3	Z3	X4	Y4	Z4	X5	Y5	Z5	X6	Y6	Z6	X7	Y7	Z7	X8	Y8	Z8	X9	Y9	Z9	X10	Y10	Z10	X11	Y11	Z11	X12	Y12	Z12	X13	Y13	Z13	X14	Y14	Z14	X15	Y15	Z15	X16	Y16	Z16	X17	Y17	Z17	X18	Y18	Z18	
52	0.433333	-189.46	41.366	3.86845	-193.597	56.5836	-17.4272	-187.416	63.6374	-46.9531	-178.221	71.4724	-62.2576	-159.575	54.1102	-51.9374	-154.935	80.6305	-43.2599	-164.577	71.2297	-15.3204	-140.224	60.6266	-44.6395	-145.464	83.8649	-31.0195	-161.87	67.0742	-6.38004	-126.216	54.1734	-33.2937	-136.987	76.9965	-21.4877	-148.318	59.4904	-1.64816	-110.173	35.4248	-23.4903	-99.8663	43.7599	-40.0101	-86.94	47.898	-54.8277	-144.298	18.3991	-6.45518	-152.154	9.92551	21.7657	-173.331	16.8797	-5.46747	
53	0.441667	-190.912	38.338	7.76654	-195.429	44.1386	-22.9715	-192.923	45.6346	-47.7644	-185.68	48.4483	-64.1452	-166.365	33.3582	-54.3138	-162.684	62.5867	-54.7532	-169.37	65.5705	-27.6779	-150.027	42.4195	-52.3253	-150.723	69.9987	-41.4368	-160.868	59.3616	-13.1866	-134.697	39.8563	-44.598	-137.515	64.0543	-37.3161	-150.473	58.358	-14.0234	-116.165	23.0464	-28.8429	-107.934	26.8978	-47.5485	-98.6349	27.7758	-63.2413	-141.541	10.2286	2.00046	-149.366	11.4021	24.7406	-173.294	10.7803	1.51227	
54	0.45	-193.715	32.2989	8.02473	-198.955	34.8417	-16.6687	-200.304	29.1567	-41.9684	-195.365	26.8276	-60.2755	-175.28	13.1125	-49.7102	-170.826	42.6344	-57.7876	-174.368	52.5564	-33.0806	-154.067	19.353	-48.8604	-157.845	49.8925	-47.8319	-166.981	49.2211	-17.5576	-138.172	19.0163	-41.8614	-142.24	47.1659	-42.6801	-154.093	47.2679	-19.5766	-122.177	6.58343	-28.1392	-116.507	5.50691	-45.4259	-111.599	5.06196	-64.3952	-146.513	3.01534	6.87253	-149.9	13.4776	31.9594	-177.077	8.28753	12.0508	
55	0.458333	-198.749	31.6092	14.1641	-209.492	27.4413	-13.4714	-209.667	17.5671	-32.9064	-213.338	10.4565	-54.8211	-191.105	-4.36813	-37.3796	-183.651	18.9672	-54.5925	-182.837	38.2578	-32.7991	-172.871	-1.01523	-41.5336	-170.137	28.9887	-49.9443	-171.285	38.8051	-21.0082	-157.53	-3.61972	-34.3439	-155.268	26.3005	-43.7593	-162.432	34.5152	-20.7634	-137.705	-13.4199	-18.0505	-136.777	-19.0481	-35.3073	-129.283	-23.3061	-59.2195	-162.396	-3.19872	15.4845	-163.381	8.92611	36.6244	-187.651	5.20969	25.4907	
56	0.466667	-208.667	33.8012	18.4218	-220.653	30.7559	-6.92237	-227.709	18.8319	-26.3153	-230.641	10.4862	-43.9057	-215.408	-8.14515	-29.5925	-203.55	8.80563	-48.3685	-195.129	30.2394	-31.9707	-195.171	-12.2109	-33.6807	-182.024	13.3046	-43.3415	-181.138	26.6956	-14.3056	-180.361	-18.3098	-24.5447	-170.717	6.82234	-38.4531	-175.472	21.3752	-15.7799	-167.572	-28.4444	-5.28885	-168.131	-39.4593	-22.7025	-165.392	-47.7493	-45.8431	-180.51	-14.9079	22.9651	-175.057	3.9359	47.0452	-204.679	7.00823	29.363	
57	0.475	-206.373	43.1033	23.8647	-219.285	43.2041	-1.21821	-231.072	31.1057	-21.7308	-237.438	24.0362	-38.4897	-234.062	6.64386	-27.0424	-214.853	13.1632	-43.6401	-199.555	30.5476	-25.8401	-217.992	-7.76124	-28.0341	-197.839	6.81763	-41.0698	-190.127	23.3686	-10.1033	-207.857	-17.8651	-24.135	-191.303	-0.214124	-35.9252	-184.784	14.5627	-16.1278	-201.626	-33.7785	0.194976	-208.047	-45.8303	-18.6652	-212.991	-52.7097	-35.7777	-203.556	-11.0029	28.7286	-196.524	4.63754	49.4517	-216.693	16.2225	36.308	
58	0.483333	-199.602	53.4791	24.2611	-208.326	56.3918	-2.2942	-219.577	56.5147	-21.6801	-230.702	51.4373	-42.492	-239.93	32.918	-25.6268	-219.932	29.2087	-44.8404	-195.888	34.4551	-22.9002	-232.619	12.6281	-26.78	-202.837	16.817	-37.573	-193.622	26.1823	-8.66239	-230.367	-2.59957	-21.948	-204.886	3.3866	-34.912	-192.826	13.7738	-15.7276	-234.752	-19.6513	-0.634254	-245.602	-23.0832	-16.6461	-255.694	-29.2293	-36.4844	-228.229	5.85504	25.6533	-211.036	8.83464	49.6963	-224.563	30.7743	34.6784	
59	0.491667	-186.826	54.2887	23.9526	-190.964	61.7743	-3.71401	-199.65	67.1858	-24.0934	-210.236	66.9941	-44.7298	-227.562	58.4324	-33.378	-206.635	46.6948	-46.9885	-191.652	36.9271	-27.9725	-231.568	34.8481	-33.7446	-205.924	26.6028	-41.8368	-195.588	25.4374	-10.2248	-237.664	20.8269	-29.667	-211.339	16.8845	-37.2306	-198.322	17.0554	-11.6238	-250.401	7.44492	-4.85856	-266.564	6.71135	-24.0734	-274.728	7.86025	-37.4816	-235.983	21.5157	25.5453	-223.448	19.8122	46.6531	-219.471	50.0504	31.839	
60	0.5	-178.118	53.5943	23.2635	-176.866	62.2367	-3.33087	-181.717	73.4658	-28.3127	-189.118	76.0444	-45.0543	-211.731	73.9285	-30.5078	-199.872	55.0536	-49.9011	-186.477	37.9576	-25.1182	-220.184	57.6449	-36.783	-203.291	36.3336	-44.0385	-191.23	35.4041	-10.4409	-234.95	44.2615	-33.4115	-213.947	27.2289	-41.1821	-200.87	25.6973	-18.4301	-253.5	37.6847	-11.6535	-267.1	39.461	-26.4903	-279.591	44.7361	-39.0053	-235.002	47.1422	16.9199	-223.259	36.2874	42.9868	-213.031	57.6127	28.1703	
61	0.508333	-171.157	54.9568	20.7517	-163.245	62.8567	-5.06669	-163.931	72.3864	-27.0095	-168.409	80.103	-48.9673	-197.135	81.8861	-33.7343	-187.903	59.5744	-51.6705	-176.854	42.9277	-28.0692	-207.239	67.1415	-41.0603	-194.937	41.3528	-43.318	-188.209	40.2457	-12.1421	-227.194	58.5497	-36.6105	-207.73	39.7934	-44.8523	-200.704	31.9115	-17.9501	-251.074	57.6081	-17.7209	-259.656	64.8652	-33.2969	-267.425	72.4814	-47.1689	-228.888	62.1426	11.5612	-221.529	50.3615	35.3221	-199.341	69.9585	27.8612	
62	0.516667	-161.879	56.163	20.5166	-151.05	64.2756	-7.41214	-149.735	69.8212	-26.1392	-152.435	78.0395	-50.0247	-176.409	84.7258	-40.6552	-170.975	61.8252	-54.0093	-169.857	44.5209	-26.274	-191.259	73.9055	-43.1846	-180.155	45.2545	-45.0174	-180.996	42.4035	-13.7854	-210.581	68.1149	-43.1897	-195.352	47.4615	-48.4182	-191.121	40.2879	-18.8185	-234.945	72.9043	-23.8106	-243.184	79.4866	-40.2023	-252.251	89.0823	-55.0803	-213.389	74.4047	11.8534	-209.859	62.9121	32.2212	-187.86	76.6293	22.4318	
63	0.525	-149.101	56.8223	19.4961	-133.719	58.6348	-5.05523	-130.904	63.8039	-26.7851	-131.866	67.6015	-50.123	-152.911	79.5592	-43.0556	-152.235	52.2783	-52.3605	-153.286	41.3473	-24.0026	-171.052	70.2894	-48.0416	-165.531	43.063	-47.2982	-163.278	43.3048	-14.4206	-189.12	71.9131	-44.8223	-178.386	45.4565	-47.7787	-177.927	41.1039	-20.7194	-210.775	80.8311	-29.6806	-219.286	85.1535	-47.9548	-221.399	95.3929	-66.2927	-192.856	82.503	4.50037	-199.707	73.7115	29.5446	-168.438	83.4857	17.2423	
64	0.533333	-133.392	53.6119	20.1548	-115.35	44.5137	0.470833	-106.852	47.9811	-27.1653	-109.7	47.0533	-46.225	-128.467	63.2569	-45.7954	-133.399	35.206	-47.6438	-135.986	30.3399	-20.8995	-144.51	59.6825	-48.7981	-149.859	30.2889	-41.1927	-150.305	37.5819	-10.0414	-166.147	63.2383	-50.3495	-161.971	36.47	-46.3536	-160.054	38.492	-17.3464	-183.278	79.6446	-38.3725	-188.343	82.7009	-56.8109	-193.268	87.7524	-72.7593	-170.062	84.3274	-1.09315	-175.348	78.5109	23.8187	-145.316	78.4262	14.0993	
65	0.541667	-119.331	42.3978	23.9339	-101.906	32.1647	0.918274	-96.3163	27.0558	-16.7855	-93.6875	25.5971	-40.3992	-110.323	47.7145	-39.2472	-121.989	19.3119	-42.0454	-128.077	19.5045	-11.6618	-128.775	42.8572	-45.7065	-140.693	16.788	-36.2338	-142.855	25.0799	-7.18425	-145.186	47.6109	-47.0372	-148.582	22.6494	-38.4965	-150.433	29.0593	-12.2129	-165.04	69.4052	-42.1055	-171.41	69.5068	-57.8398	-166.933	74.2485	-76.5094	-152.205	74.961	-0.353305	-159.004	77.229	20.6266	-130.764	71.2286	15.1567	
